<svg width="42" height="42" viewBox="0 0 42 42" fill="none" xmlns="http://www.w3.org/2000/svg">
<path id="Vector" d="M3.15803 0.880005C2.47923 0.880005 1.82824 1.13378 1.34826 1.58552C0.868283 2.03725 0.598633 2.64992 0.598633 3.28877C0.598633 3.92761 0.868283 4.54029 1.34826 4.99202C1.82824 5.44375 2.47923 5.69753 3.15803 5.69753H6.28049L7.06111 8.64104C7.06886 8.67493 7.07739 8.70866 7.0867 8.74221L10.5624 21.8218L8.27682 23.9704C5.05198 27.0054 7.33496 32.1939 11.8958 32.1939H33.8708C34.5496 32.1939 35.2006 31.9401 35.6805 31.4884C36.1605 31.0367 36.4302 30.424 36.4302 29.7852C36.4302 29.1463 36.1605 28.5336 35.6805 28.0819C35.2006 27.6302 34.5496 27.3764 33.8708 27.3764H11.8958L14.4552 24.9676H31.3114C31.7866 24.9674 32.2523 24.8427 32.6564 24.6074C33.0605 24.3721 33.3871 24.0356 33.5995 23.6356L41.2777 9.18301C41.4726 8.81586 41.5646 8.40793 41.545 7.99791C41.5254 7.5879 41.3948 7.1894 41.1656 6.84023C40.9363 6.49107 40.6161 6.20281 40.2353 6.00283C39.8545 5.80284 39.4257 5.69775 38.9896 5.69753H11.5528L10.7594 2.70344C10.6208 2.18255 10.3012 1.7202 9.85138 1.38983C9.40158 1.05946 8.84738 0.880019 8.27682 0.880005H3.15803ZM36.4302 38.2158C36.4302 39.1741 36.0257 40.0931 35.3057 40.7707C34.5858 41.4483 33.6093 41.829 32.5911 41.829C31.5729 41.829 30.5964 41.4483 29.8764 40.7707C29.1565 40.0931 28.752 39.1741 28.752 38.2158C28.752 37.2576 29.1565 36.3385 29.8764 35.6609C30.5964 34.9834 31.5729 34.6027 32.5911 34.6027C33.6093 34.6027 34.5858 34.9834 35.3057 35.6609C36.0257 36.3385 36.4302 37.2576 36.4302 38.2158ZM12.1159 41.829C13.1341 41.829 14.1106 41.4483 14.8306 40.7707C15.5505 40.0931 15.955 39.1741 15.955 38.2158C15.955 37.2576 15.5505 36.3385 14.8306 35.6609C14.1106 34.9834 13.1341 34.6027 12.1159 34.6027C11.0977 34.6027 10.1212 34.9834 9.40126 35.6609C8.68129 36.3385 8.27682 37.2576 8.27682 38.2158C8.27682 39.1741 8.68129 40.0931 9.40126 40.7707C10.1212 41.4483 11.0977 41.829 12.1159 41.829V41.829Z" fill="#4D4D4D"/>
</svg>
